<svg xmlns="http://www.w3.org/2000/svg" viewBox="0 0 1600 1600" width="48" height="48">
  <defs><clipPath id="f"><circle cx="800" cy="800" r="800"/></clipPath></defs>
  <circle cx="800" cy="800" r="800" fill="#F59E0B"/>
  <g clip-path="url(#f)"><g transform="translate(50 50)"><g transform="translate(750 750) scale(1.28) translate(-750 -750)"><g transform="matrix(1.464844, 0, 0, 1.464844, 0.00003335, -0.00002)"><g transform="translate(0,1024) scale(0.1,-0.1)"><path fill="#152240" d="M1913 8231 c-79 -37 -115 -128 -152 -390 -34 -237 -44 -427 -38 -706 9 -370 34 -597 103 -929 78 -373 179 -679 327 -989 155 -324 376 -656 585 -880 l68 -72 17 -140 c37 -304 137 -576 287 -788 70 -97 242 -269 341 -339 35 -25 141 -95 235 -155 208 -134 358 -246 619 -464 242 -201 334 -268 440 -319 219 -106 455 -117 676 -34 131 49 253 135 499 350 270 236 362 304 766 564 339 219 529 454 644 799 40 117 82 324 95 460 l7 74 76 81 c391 418 701 1000 853 1601 156 616 198 1271 119 1838 -34 242 -68 354 -122 404 -57 53 -156 67 -259 37 -228 -68 -741 -413 -1169 -787 -277 -242 -702 -687 -1097 -1147 l-159 -185 -79 1 c-44 1 -204 5 -355 9 -253 7 -490 -1 -621 -21 l-36 -6 -163 188 c-547 631 -879 966 -1300 1315 -291 241 -719 522 -929 610 -99 42 -214 50 -278 20z m322 -465 c266 -146 711 -557 1012 -933 295 -370 527 -782 597 -1064 28 -114 27 -117 -75 -227 -97 -103 -191 -223 -235 -299 -62 -105 -97 -263 -59 -263 8 0 77 62 152 138 326 327 688 510 1143 579 139 21 508 24 645 5 256 -35 438 -88 642 -187 221 -106 434 -264 622 -459 40 -42 79 -76 87 -76 19 0 18 52 -2 121 -36 123 -129 262 -297 444 -53 58 -97 111 -97 119 0 30 50 207 85 301 130 351 476 850 857 1235 231 234 490 447 663 545 88 50 109 54 124 26 38 -71 62 -468 42 -706 -49 -587 -224 -1223 -471 -1710 -137 -271 -280 -476 -486 -694 l-88 -94 -1 -266 c-1 -284 -10 -362 -62 -540 -83 -288 -249 -476 -613 -696 -222 -134 -339 -222 -622 -469 -199 -174 -336 -250 -522 -291 -111 -25 -278 -16 -401 20 -171 50 -242 98 -592 398 -135 116 -311 241 -543 385 -365 226 -509 433 -581 832 -19 105 -23 165 -24 378 l-2 252 -74 78 c-372 388 -648 924 -823 1592 -104 399 -150 730 -150 1075 0 267 21 431 60 470 20 20 18 20 89 -19z M3977 4431 c-127 -42 -217 -130 -239 -234 -9 -43 -8 -66 5 -125 27 -119 71 -196 167 -292 135 -136 256 -184 465 -185 140 0 213 19 272 70 l38 33 -1 88 c-3 179 -112 424 -243 546 -95 89 -149 110 -291 115 -93 2 -126 -1 -173 -16z m281 -236 c38 -41 43 -92 13 -119 -44 -40 -141 33 -141 105 0 66 72 74 128 14z M5950 4430 c-193 -72 -377 -363 -396 -630 -5 -64 -2 -80 15 -107 63 -99 306 -132 507 -69 90 29 207 100 265 162 120 127 184 316 149 439 -20 70 -92 144 -182 185 -67 31 -82 34 -188 37 -96 3 -124 0 -170 -17z m142 -207 c31 -28 23 -77 -19 -118 -42 -41 -72 -51 -102 -36 -47 26 -28 115 33 152 38 23 64 24 88 2z M5008 3270 c-179 -30 -268 -122 -237 -245 9 -36 29 -64 87 -126 93 -99 229 -209 258 -209 45 0 283 206 329 284 44 77 40 151 -13 209 -65 73 -266 113 -424 87z"/></g></g></g></g></g>
</svg>
